<svg width="16" height="16" viewBox="0 0 16 16" fill="none" xmlns="http://www.w3.org/2000/svg">
<path d="M13.193 9.95355C11.8197 11.3202 9.85302 11.7402 8.12636 11.2002L4.98636 14.3335C4.75969 14.5669 4.31302 14.7069 3.99302 14.6602L2.53969 14.4602C2.05969 14.3935 1.61302 13.9402 1.53969 13.4602L1.33969 12.0069C1.29302 11.6869 1.44636 11.2402 1.66636 11.0135L4.79969 7.88021C4.26636 6.14688 4.67969 4.18021 6.05302 2.81355C8.01969 0.84688 11.213 0.84688 13.1864 2.81355C15.1597 4.78021 15.1597 7.98688 13.193 9.95355Z" stroke="black" stroke-width="1.5" stroke-miterlimit="10" stroke-linecap="round" stroke-linejoin="round"/>
<path d="M4.59302 11.6602L6.12635 13.1935" stroke="black" stroke-width="1.5" stroke-miterlimit="10" stroke-linecap="round" stroke-linejoin="round"/>
<path d="M9.66675 7.33333C10.219 7.33333 10.6667 6.88561 10.6667 6.33333C10.6667 5.78104 10.219 5.33333 9.66675 5.33333C9.11446 5.33333 8.66675 5.78104 8.66675 6.33333C8.66675 6.88561 9.11446 7.33333 9.66675 7.33333Z" stroke="black" stroke-width="1.5" stroke-linecap="round" stroke-linejoin="round"/>
</svg>
