<?xml version="1.0" encoding="UTF-8"?>
<svg id="Capa_1" data-name="Capa 1" xmlns="http://www.w3.org/2000/svg" viewBox="0 0 251.86 158.2">
  <defs>
    <style>
      .cls-1 {
        fill: #f60;
      }

      .cls-2 {
        fill: #fff;
      }

      .cls-3 {
        fill: #444f62;
      }
    </style>
  </defs>
  <rect class="cls-1" width="251.86" height="158.2"/>
  <g>
    <g>
      <path class="cls-2" d="M22.43,113.42v-28.2h17.99l-.58,3.95h-10.67v7.71h9.14v3.86h-9.14v8.74h11.7v3.95h-18.44Z"/>
      <path class="cls-2" d="M56.53,113.42l-4.46-6.42-4.79,6.42h-5.24l7.66-9.81-7.36-10.56h7.51l4.23,6.05,4.51-6.05h5.22l-7.38,9.42,7.64,10.95h-7.53Z"/>
      <path class="cls-2" d="M67.03,122.42v-23.27c0-.46-.01-.95-.03-1.48s-.05-1.06-.1-1.6c-.04-.54-.1-1.07-.17-1.59-.07-.52-.15-1-.24-1.43h5.9c.11.24.22.52.32.82s.19.61.28.92c.69-.7,1.53-1.26,2.53-1.69,1-.42,2.16-.63,3.48-.63s2.53.23,3.65.69c1.12.46,2.08,1.12,2.89,2,.81.87,1.44,1.94,1.89,3.2.45,1.26.68,2.69.68,4.29s-.24,3.16-.72,4.54c-.48,1.38-1.15,2.57-2.02,3.57-.87,1-1.9,1.78-3.09,2.33-1.2.55-2.51.83-3.94.83-.99,0-1.87-.14-2.65-.41-.78-.27-1.49-.62-2.14-1.03v9.94h-6.53ZM73.55,109.45c.46.31.97.57,1.52.77s1.15.3,1.78.3c.86,0,1.58-.19,2.16-.57.58-.38,1.04-.9,1.4-1.58.35-.67.6-1.47.75-2.39.15-.92.22-1.92.22-2.99,0-2.39-.35-4.15-1.05-5.28-.7-1.13-1.79-1.7-3.26-1.7-.64,0-1.27.11-1.88.32-.61.21-1.16.51-1.64.9v12.21Z"/>
      <path class="cls-2" d="M97.89,103.85c.07.97.24,1.85.5,2.64.26.79.67,1.46,1.2,2.02s1.23.99,2.07,1.29c.84.3,1.87.45,3.07.45,1.33,0,2.54-.17,3.62-.52,1.08-.34,2.05-.79,2.91-1.35l.13.13-.64,3.28c-.84.59-1.93,1.09-3.25,1.5-1.32.41-2.88.62-4.67.62s-3.44-.24-4.87-.73c-1.43-.49-2.64-1.19-3.63-2.1-.99-.92-1.74-2.03-2.26-3.35-.52-1.32-.78-2.81-.78-4.49s.25-3.16.76-4.49c.51-1.33,1.23-2.46,2.18-3.39.94-.93,2.09-1.65,3.42-2.15s2.83-.75,4.48-.75c1.46,0,2.79.21,4,.62,1.21.42,2.25,1.05,3.11,1.91.87.86,1.53,1.95,2.01,3.28.47,1.33.71,2.92.71,4.76v.38c0,.12,0,.26-.02.42h-14.04ZM105.66,101.15c-.03-.82-.11-1.56-.26-2.22-.14-.67-.35-1.24-.63-1.72s-.64-.85-1.08-1.12c-.44-.26-.99-.4-1.63-.4-1.13,0-2.06.43-2.8,1.3-.74.87-1.18,2.25-1.34,4.15h7.75Z"/>
      <path class="cls-2" d="M116.27,113.42v-14.27c0-.46-.01-.95-.03-1.48-.02-.53-.05-1.06-.1-1.6-.04-.54-.1-1.07-.17-1.59-.07-.52-.15-1-.24-1.43h5.95c.11.23.22.49.31.78s.18.6.26.91c.08.32.14.63.19.96.05.32.1.63.14.91.26-.44.57-.9.94-1.37.37-.47.82-.9,1.35-1.29.53-.39,1.15-.7,1.87-.94.72-.24,1.54-.37,2.47-.37.34,0,.69.02,1.03.06v4.81c-.64-.09-1.25-.13-1.82-.13s-1.13.04-1.68.13c-.55.09-1.07.22-1.57.4-.49.18-.94.4-1.35.67-.41.27-.75.58-1.02.93v13.91h-6.53Z"/>
      <path class="cls-2" d="M133.98,87.8l6.46-.86v6.31h5.26v3.43h-5.26v10.75c0,.56.06,1.02.17,1.38.11.37.27.65.48.87s.46.36.75.45c.29.09.63.13,1,.13.64,0,1.24-.09,1.79-.28.55-.19,1.06-.4,1.51-.64l.15.13-.82,3.11c-.56.33-1.28.63-2.17.91-.89.28-1.9.42-3.05.42-.87,0-1.69-.1-2.45-.31-.76-.21-1.42-.55-2-1.03s-1.02-1.11-1.35-1.89c-.33-.78-.49-1.74-.49-2.89v-11.12h-2.77l.47-3.24,2.3-.09v-5.56Z"/>
      <path class="cls-3" d="M158.79,113.92c-1.7,0-3.22-.24-4.54-.73-1.32-.49-2.44-1.18-3.35-2.08-.91-.9-1.6-2-2.07-3.31-.47-1.3-.71-2.77-.71-4.4,0-1.79.28-3.36.83-4.72.55-1.36,1.32-2.5,2.32-3.41.99-.92,2.19-1.61,3.57-2.08,1.39-.47,2.92-.71,4.59-.71s3.16.23,4.51.69c1.34.46,2.49,1.13,3.43,2.02.94.89,1.67,1.98,2.18,3.27s.76,2.78.76,4.45-.28,3.3-.84,4.67c-.56,1.37-1.34,2.52-2.35,3.46-1.01.94-2.22,1.65-3.64,2.15s-2.98.74-4.7.74ZM159.18,110.59c1.43,0,2.52-.61,3.27-1.84s1.13-3.12,1.13-5.7c0-1.29-.1-2.39-.29-3.32-.19-.92-.48-1.67-.85-2.25-.37-.58-.83-1.01-1.37-1.28-.54-.27-1.17-.41-1.87-.41s-1.32.14-1.87.42-1,.71-1.37,1.3c-.37.59-.65,1.35-.84,2.28-.19.93-.28,2.05-.28,3.35,0,2.53.35,4.41,1.06,5.62.71,1.22,1.8,1.82,3.27,1.82Z"/>
      <path class="cls-3" d="M184.16,113.92c-1.7,0-3.22-.24-4.54-.73-1.32-.49-2.44-1.18-3.35-2.08-.91-.9-1.6-2-2.07-3.31-.47-1.3-.71-2.77-.71-4.4,0-1.79.28-3.36.83-4.72.55-1.36,1.32-2.5,2.32-3.41.99-.92,2.19-1.61,3.57-2.08,1.39-.47,2.92-.71,4.59-.71s3.16.23,4.51.69c1.34.46,2.49,1.13,3.43,2.02.94.89,1.67,1.98,2.18,3.27.51,1.3.76,2.78.76,4.45s-.28,3.3-.84,4.67c-.56,1.37-1.34,2.52-2.35,3.46-1.01.94-2.22,1.65-3.64,2.15s-2.98.74-4.7.74ZM184.55,110.59c1.43,0,2.52-.61,3.27-1.84.75-1.22,1.13-3.12,1.13-5.7,0-1.29-.1-2.39-.29-3.32-.19-.92-.48-1.67-.85-2.25-.37-.58-.83-1.01-1.37-1.28-.54-.27-1.17-.41-1.87-.41s-1.32.14-1.87.42-1,.71-1.37,1.3c-.37.59-.65,1.35-.84,2.28-.19.93-.28,2.05-.28,3.35,0,2.53.35,4.41,1.06,5.62.71,1.22,1.8,1.82,3.27,1.82Z"/>
      <path class="cls-3" d="M200.13,113.42v-28.2h6.74v11.66h10.43v-11.66h6.74v28.2h-6.74v-12.69h-10.43v12.69h-6.74Z"/>
    </g>
    <g>
      <rect class="cls-2" x="97.81" y="39.24" width="51.54" height="16.6"/>
      <rect class="cls-2" x="97.81" y="57.81" width="51.54" height="2.12"/>
      <g>
        <rect class="cls-2" x="105.48" y="59.79" width="3.61" height="4.95"/>
        <rect class="cls-2" x="138.06" y="59.79" width="3.61" height="4.95"/>
      </g>
    </g>
    <g>
      <path class="cls-2" d="M120.29,84.19l.67-6.1h4.53l.67,6.1h52.74l-49.31-21.99h-2.83s0,0,0,0h-7.01s-2.89,0-2.89,0l-49.31,21.99h52.74ZM122.62,62.97h1.2l.43,3.89h-2.06l.43-3.89ZM122.02,68.49h2.41l.83,7.54h-4.07l.83-7.54Z"/>
      <path class="cls-2" d="M73.11,84.19c-.17-1.7-.26-3.41-.26-5.09,0-27.78,22.6-50.39,50.39-50.39s50.39,22.6,50.39,50.39c0,1.68-.09,3.39-.26,5.09h1.44c.17-1.7.26-3.41.26-5.09,0-28.57-23.25-51.82-51.82-51.82s-51.82,23.25-51.82,51.82c0,1.68.09,3.38.26,5.09h1.44Z"/>
      <path class="cls-2" d="M69.09,84.19c-.15-1.68-.23-3.37-.23-5.04,0-29.98,24.39-54.37,54.37-54.37s54.37,24.39,54.37,54.37c0,1.67-.08,3.36-.23,5.04h1.55c.15-1.68.23-3.37.23-5.04,0-30.84-25.09-55.92-55.92-55.92s-55.92,25.09-55.92,55.92c0,1.67.08,3.36.23,5.04h1.55Z"/>
    </g>
    <g>
      <path class="cls-2" d="M84.87,130.24v-4.27l-3.18-5.79h1.48l1.42,2.78c.39.76.69,1.37,1,2.07h.03c.28-.66.63-1.31,1.01-2.07l1.45-2.78h1.48l-3.37,5.77v4.28h-1.31Z"/>
      <path class="cls-2" d="M95.62,126.57c0,2.67-1.85,3.83-3.6,3.83-1.95,0-3.46-1.43-3.46-3.71,0-2.42,1.58-3.83,3.58-3.83s3.48,1.51,3.48,3.71ZM89.89,126.65c0,1.58.91,2.78,2.19,2.78s2.19-1.18,2.19-2.8c0-1.22-.61-2.78-2.16-2.78s-2.22,1.43-2.22,2.8Z"/>
      <path class="cls-2" d="M102.88,128.27c0,.75.02,1.4.06,1.97h-1.16l-.08-1.18h-.03c-.34.58-1.1,1.34-2.39,1.34-1.13,0-2.49-.63-2.49-3.16v-4.22h1.31v4c0,1.37.42,2.3,1.61,2.3.88,0,1.49-.61,1.73-1.19.08-.19.12-.43.12-.67v-4.43h1.31v5.25Z"/>
      <path class="cls-2" d="M107.4,120.19h1.3v4.85h.04c.27-.39.54-.75.79-1.07l3.07-3.77h1.61l-3.64,4.27,3.92,5.79h-1.54l-3.31-4.94-.95,1.1v3.83h-1.3v-10.05Z"/>
      <path class="cls-2" d="M115.16,124.98c0-.75-.02-1.36-.06-1.95h1.16l.08,1.19h.03c.36-.69,1.19-1.36,2.39-1.36,1,0,2.55.6,2.55,3.07v4.31h-1.31v-4.16c0-1.16-.43-2.13-1.67-2.13-.86,0-1.54.61-1.76,1.34-.06.16-.09.39-.09.61v4.34h-1.31v-5.27Z"/>
      <path class="cls-2" d="M129.53,126.57c0,2.67-1.85,3.83-3.6,3.83-1.95,0-3.46-1.43-3.46-3.71,0-2.42,1.58-3.83,3.58-3.83s3.48,1.51,3.48,3.71ZM123.81,126.65c0,1.58.91,2.78,2.19,2.78s2.19-1.18,2.19-2.8c0-1.22-.61-2.78-2.16-2.78s-2.22,1.43-2.22,2.8Z"/>
      <path class="cls-2" d="M131.17,123.02l.95,3.67c.21.81.4,1.55.54,2.3h.04c.16-.73.4-1.51.64-2.28l1.18-3.68h1.1l1.12,3.61c.27.86.48,1.63.64,2.36h.04c.12-.73.31-1.49.55-2.34l1.03-3.62h1.3l-2.33,7.22h-1.19l-1.1-3.45c-.25-.81-.46-1.52-.64-2.37h-.03c-.18.87-.4,1.61-.66,2.39l-1.16,3.43h-1.19l-2.18-7.22h1.34Z"/>
      <path class="cls-2" d="M145.5,120.95v2.07h1.88v1h-1.88v3.89c0,.9.25,1.4.98,1.4.34,0,.6-.04.76-.09l.06.98c-.25.1-.66.18-1.16.18-.61,0-1.1-.19-1.42-.55-.37-.39-.51-1.03-.51-1.88v-3.94h-1.12v-1h1.12v-1.73l1.28-.34Z"/>
      <path class="cls-2" d="M148.43,119.65h1.31v4.5h.03c.21-.37.54-.7.94-.92.39-.22.85-.37,1.34-.37.97,0,2.52.6,2.52,3.09v4.3h-1.31v-4.15c0-1.16-.43-2.15-1.67-2.15-.85,0-1.52.6-1.76,1.31-.07.18-.09.37-.09.63v4.36h-1.31v-10.59Z"/>
      <path class="cls-2" d="M160.27,130.24l-.1-.91h-.04c-.4.57-1.18,1.07-2.21,1.07-1.46,0-2.21-1.03-2.21-2.07,0-1.75,1.55-2.7,4.34-2.69v-.15c0-.6-.16-1.67-1.64-1.67-.67,0-1.37.21-1.88.54l-.3-.86c.6-.39,1.46-.64,2.37-.64,2.21,0,2.74,1.51,2.74,2.95v2.7c0,.63.03,1.24.12,1.73h-1.19ZM160.07,126.56c-1.43-.03-3.06.22-3.06,1.63,0,.85.57,1.25,1.24,1.25.94,0,1.54-.6,1.75-1.21.04-.13.07-.28.07-.42v-1.25Z"/>
      <path class="cls-2" d="M164.55,120.95v2.07h1.88v1h-1.88v3.89c0,.9.25,1.4.98,1.4.34,0,.6-.04.76-.09l.06.98c-.25.1-.66.18-1.16.18-.61,0-1.1-.19-1.42-.55-.37-.39-.51-1.03-.51-1.88v-3.94h-1.12v-1h1.12v-1.73l1.28-.34Z"/>
      <path class="cls-2" d="M171.35,130.24l-2.55-10.05h1.37l1.19,5.09c.3,1.25.57,2.51.75,3.48h.03c.16-1,.48-2.19.82-3.49l1.34-5.07h1.36l1.22,5.1c.28,1.19.55,2.39.7,3.45h.03c.21-1.1.49-2.22.81-3.48l1.33-5.07h1.33l-2.85,10.05h-1.36l-1.27-5.24c-.31-1.28-.52-2.27-.66-3.28h-.03c-.18,1-.4,1.98-.78,3.28l-1.43,5.24h-1.36Z"/>
      <path class="cls-2" d="M182.09,126.87c.03,1.78,1.16,2.51,2.48,2.51.94,0,1.51-.16,2-.37l.22.94c-.46.21-1.25.45-2.4.45-2.22,0-3.55-1.46-3.55-3.64s1.28-3.89,3.39-3.89c2.36,0,2.98,2.07,2.98,3.4,0,.27-.03.48-.04.61h-5.07ZM185.94,125.93c.01-.84-.34-2.13-1.82-2.13-1.33,0-1.91,1.22-2.01,2.13h3.83Z"/>
      <path class="cls-2" d="M191.17,120.19h1.3v4.85h.04c.27-.39.54-.75.79-1.07l3.07-3.77h1.61l-3.64,4.27,3.92,5.79h-1.54l-3.31-4.94-.95,1.1v3.83h-1.3v-10.05Z"/>
      <path class="cls-2" d="M198.92,124.98c0-.75-.02-1.36-.06-1.95h1.16l.08,1.19h.03c.36-.69,1.19-1.36,2.39-1.36,1,0,2.55.6,2.55,3.07v4.31h-1.31v-4.16c0-1.16-.43-2.13-1.67-2.13-.86,0-1.54.61-1.76,1.34-.06.16-.09.39-.09.61v4.34h-1.31v-5.27Z"/>
      <path class="cls-2" d="M213.3,126.57c0,2.67-1.85,3.83-3.6,3.83-1.95,0-3.46-1.43-3.46-3.71,0-2.42,1.58-3.83,3.58-3.83s3.48,1.51,3.48,3.71ZM207.57,126.65c0,1.58.91,2.78,2.19,2.78s2.19-1.18,2.19-2.8c0-1.22-.61-2.78-2.16-2.78s-2.22,1.43-2.22,2.8Z"/>
      <path class="cls-2" d="M214.94,123.02l.95,3.67c.21.81.4,1.55.54,2.3h.04c.16-.73.4-1.51.64-2.28l1.18-3.68h1.1l1.12,3.61c.27.86.48,1.63.64,2.36h.04c.12-.73.31-1.49.55-2.34l1.03-3.62h1.3l-2.33,7.22h-1.19l-1.1-3.45c-.25-.81-.46-1.52-.64-2.37h-.03c-.18.87-.4,1.61-.66,2.39l-1.16,3.43h-1.19l-2.18-7.22h1.34Z"/>
    </g>
  </g>
</svg>