<?xml version="1.0" encoding="UTF-8"?>
<svg id="Capa_1" data-name="Capa 1" xmlns="http://www.w3.org/2000/svg" viewBox="0 0 450.66 247.2">
  <defs>
    <style>
      .cls-1 {
        letter-spacing: -.1em;
      }

      .cls-1, .cls-2, .cls-3, .cls-4, .cls-5, .cls-6, .cls-7, .cls-8 {
        fill: #444f62;
      }

      .cls-9, .cls-10, .cls-11, .cls-12, .cls-13 {
        fill: #f60;
      }

      .cls-2, .cls-13 {
        letter-spacing: -.04em;
      }

      .cls-3, .cls-10 {
        letter-spacing: -.03em;
      }

      .cls-4 {
        letter-spacing: -.03em;
      }

      .cls-5 {
        letter-spacing: -.02em;
      }

      .cls-14 {
        font-family: MyriadPro-Regular, 'Myriad Pro';
        font-size: 33.29px;
      }

      .cls-11 {
        letter-spacing: -.02em;
      }

      .cls-12 {
        letter-spacing: -.06em;
      }

      .cls-6 {
        letter-spacing: -.03em;
      }

      .cls-8 {
        letter-spacing: -.07em;
      }
    </style>
  </defs>
  <g>
    <path class="cls-7" d="M0,201.34v-62.96h40.15l-1.29,8.82H15.05v17.2h20.41v8.62H15.05v19.5h26.11v8.82H0Z"/>
    <path class="cls-7" d="M76.14,201.34l-9.97-14.33-10.68,14.33h-11.69l17.11-21.9-16.43-23.57h16.77l9.44,13.51,10.06-13.51h11.64l-16.48,21.03,17.06,24.44h-16.82Z"/>
    <path class="cls-7" d="M99.57,221.41v-51.94c0-1.02-.02-2.12-.07-3.31s-.12-2.37-.22-3.57c-.1-1.2-.22-2.38-.38-3.55-.16-1.16-.33-2.23-.53-3.19h13.18c.26.54.5,1.15.72,1.82.22.67.43,1.36.62,2.06,1.53-1.57,3.42-2.82,5.65-3.76,2.24-.94,4.82-1.41,7.76-1.41s5.65.51,8.15,1.53c2.49,1.02,4.64,2.51,6.44,4.46,1.8,1.95,3.21,4.33,4.22,7.14,1.01,2.81,1.51,6.01,1.51,9.58s-.54,7.05-1.61,10.13c-1.07,3.08-2.57,5.74-4.5,7.98-1.93,2.24-4.23,3.97-6.9,5.2-2.67,1.23-5.6,1.84-8.79,1.84-2.2,0-4.18-.3-5.92-.91-1.74-.61-3.33-1.37-4.77-2.3v22.18h-14.57ZM114.13,192.47c1.02.7,2.16,1.28,3.4,1.73,1.25.45,2.57.67,3.98.67,1.92,0,3.52-.42,4.82-1.27,1.29-.85,2.33-2.02,3.12-3.52.78-1.5,1.34-3.28,1.68-5.34.33-2.06.5-4.29.5-6.68,0-5.33-.78-9.26-2.35-11.79-1.56-2.52-3.99-3.79-7.28-3.79-1.44,0-2.84.24-4.19.72-1.36.48-2.58,1.15-3.67,2.01v27.26Z"/>
    <path class="cls-7" d="M168.47,179.97c.16,2.17.54,4.14,1.13,5.89.59,1.76,1.49,3.26,2.68,4.5s2.74,2.2,4.62,2.88c1.88.67,4.17,1.01,6.85,1.01,2.97,0,5.66-.38,8.07-1.15,2.41-.77,4.58-1.77,6.49-3.02l.29.29-1.44,7.33c-1.89,1.31-4.31,2.43-7.26,3.35-2.95.93-6.43,1.39-10.42,1.39s-7.68-.54-10.88-1.63c-3.19-1.09-5.89-2.65-8.1-4.7-2.2-2.04-3.89-4.54-5.06-7.48-1.17-2.94-1.75-6.28-1.75-10.01s.57-7.04,1.7-10.01c1.13-2.97,2.76-5.49,4.86-7.57,2.11-2.08,4.66-3.67,7.64-4.79,2.99-1.12,6.32-1.68,9.99-1.68,3.26,0,6.24.46,8.94,1.39,2.7.93,5.01,2.35,6.95,4.26,1.93,1.92,3.43,4.36,4.48,7.33,1.05,2.97,1.58,6.52,1.58,10.64v.84c0,.27-.02.58-.05.93h-31.34ZM185.82,173.93c-.06-1.82-.26-3.47-.58-4.96-.32-1.48-.79-2.76-1.41-3.83s-1.43-1.9-2.42-2.49c-.99-.59-2.2-.89-3.64-.89-2.52,0-4.61.97-6.25,2.9-1.65,1.93-2.64,5.02-2.99,9.27h17.3Z"/>
    <path class="cls-7" d="M209.49,201.34v-31.86c0-1.02-.02-2.12-.07-3.31-.05-1.18-.12-2.37-.22-3.57-.1-1.2-.22-2.38-.38-3.55-.16-1.16-.33-2.23-.53-3.19h13.27c.26.51.49,1.09.69,1.75s.4,1.33.58,2.04c.18.7.32,1.41.43,2.13.11.72.22,1.4.31,2.04.58-.99,1.28-2.01,2.11-3.07.83-1.05,1.84-2.01,3.02-2.88,1.18-.86,2.57-1.56,4.17-2.11,1.6-.54,3.43-.82,5.51-.82.77,0,1.53.05,2.3.14v10.73c-1.44-.19-2.8-.29-4.07-.29s-2.53.1-3.76.29c-1.23.19-2.4.49-3.5.89-1.1.4-2.11.89-3.02,1.48-.91.59-1.67,1.29-2.28,2.08v31.05h-14.57Z"/>
    <path class="cls-7" d="M249.02,144.13l14.42-1.92v14.09h11.74v7.67h-11.74v24.01c0,1.25.13,2.28.38,3.09.26.82.61,1.46,1.08,1.94s1.02.81,1.68,1.01c.65.19,1.4.29,2.23.29,1.44,0,2.77-.21,4-.62,1.23-.41,2.36-.89,3.38-1.44l.33.29-1.82,6.95c-1.25.74-2.86,1.41-4.84,2.04-1.98.62-4.25.93-6.8.93-1.95,0-3.77-.23-5.46-.69-1.69-.46-3.18-1.23-4.46-2.3-1.28-1.07-2.28-2.48-3.02-4.22-.74-1.74-1.1-3.89-1.1-6.45v-24.82h-6.18l1.05-7.24,5.13-.19v-12.41Z"/>
    <path class="cls-9" d="M304.41,202.44c-3.8,0-7.18-.54-10.13-1.63-2.96-1.09-5.45-2.63-7.48-4.65-2.03-2.01-3.57-4.47-4.62-7.38-1.05-2.91-1.58-6.18-1.58-9.82,0-3.99.61-7.51,1.84-10.54,1.23-3.03,2.95-5.57,5.18-7.62,2.22-2.04,4.88-3.59,7.98-4.65,3.1-1.05,6.52-1.58,10.25-1.58s7.06.51,10.06,1.53c3,1.02,5.56,2.52,7.67,4.5,2.11,1.98,3.73,4.42,4.86,7.31,1.13,2.89,1.7,6.2,1.7,9.94s-.62,7.37-1.87,10.42c-1.25,3.05-2.99,5.62-5.25,7.71-2.25,2.09-4.96,3.69-8.12,4.79-3.16,1.1-6.66,1.65-10.49,1.65ZM305.27,195.01c3.19,0,5.63-1.37,7.31-4.1s2.52-6.97,2.52-12.72c0-2.88-.22-5.34-.65-7.4-.43-2.06-1.06-3.74-1.89-5.03-.83-1.29-1.85-2.24-3.07-2.85-1.21-.61-2.6-.91-4.17-.91s-2.96.31-4.17.93-2.24,1.59-3.07,2.9c-.83,1.31-1.45,3-1.87,5.08-.42,2.08-.62,4.57-.62,7.48,0,5.65.79,9.84,2.37,12.55,1.58,2.72,4.02,4.07,7.31,4.07Z"/>
    <path class="cls-9" d="M361.05,202.44c-3.8,0-7.18-.54-10.13-1.63-2.96-1.09-5.45-2.63-7.48-4.65-2.03-2.01-3.57-4.47-4.62-7.38-1.05-2.91-1.58-6.18-1.58-9.82,0-3.99.61-7.51,1.84-10.54,1.23-3.03,2.95-5.57,5.18-7.62,2.22-2.04,4.88-3.59,7.98-4.65,3.1-1.05,6.52-1.58,10.25-1.58s7.06.51,10.06,1.53c3,1.02,5.56,2.52,7.67,4.5,2.11,1.98,3.73,4.42,4.86,7.31,1.13,2.89,1.7,6.2,1.7,9.94s-.62,7.37-1.87,10.42c-1.25,3.05-2.99,5.62-5.25,7.71-2.25,2.09-4.96,3.69-8.12,4.79s-6.66,1.65-10.49,1.65ZM361.91,195.01c3.19,0,5.63-1.37,7.31-4.1,1.68-2.73,2.52-6.97,2.52-12.72,0-2.88-.22-5.34-.65-7.4-.43-2.06-1.06-3.74-1.89-5.03-.83-1.29-1.85-2.24-3.07-2.85-1.21-.61-2.6-.91-4.17-.91s-2.96.31-4.17.93-2.24,1.59-3.07,2.9c-.83,1.31-1.45,3-1.87,5.08-.42,2.08-.62,4.57-.62,7.48,0,5.65.79,9.84,2.37,12.55,1.58,2.72,4.02,4.07,7.31,4.07Z"/>
    <path class="cls-9" d="M396.69,201.34v-62.96h15.05v26.02h23.29v-26.02h15.05v62.96h-15.05v-28.32h-23.29v28.32h-15.05Z"/>
  </g>
  <g>
    <rect class="cls-9" x="168.28" y="35.73" width="115.05" height="37.05"/>
    <rect class="cls-9" x="168.28" y="77.2" width="115.05" height="4.74"/>
    <g>
      <rect class="cls-9" x="185.41" y="81.61" width="8.06" height="11.05"/>
      <rect class="cls-9" x="258.14" y="81.61" width="8.06" height="11.05"/>
    </g>
  </g>
  <g>
    <path class="cls-7" d="M218.47,136.09l1.5-13.61h10.11l1.5,13.61h117.73l-110.07-49.08h-6.33s0,0,0,0h-15.64s-6.46,0-6.46,0l-110.07,49.08h117.73ZM223.68,88.71h2.68l.95,8.67h-4.59l.95-8.67ZM222.32,101.02h5.39l1.85,16.83h-9.09l1.85-16.83Z"/>
    <path class="cls-7" d="M113.13,136.09c-.38-3.8-.58-7.61-.58-11.36,0-62.02,50.46-112.48,112.48-112.48s112.48,50.46,112.48,112.48c0,3.75-.2,7.56-.58,11.36h3.21c.37-3.79.57-7.61.57-11.36,0-63.79-51.9-115.68-115.69-115.68s-115.68,51.9-115.68,115.68c0,3.74.2,7.56.57,11.36h3.21Z"/>
    <path class="cls-7" d="M104.17,136.09c-.34-3.74-.52-7.52-.52-11.24C103.65,57.91,158.11,3.46,225.04,3.46s121.38,54.45,121.38,121.38c0,3.72-.17,7.5-.52,11.24h3.46c.33-3.75.51-7.52.51-11.24C349.88,56,293.87,0,225.04,0s-124.84,56-124.84,124.84c0,3.72.18,7.5.51,11.24h3.46Z"/>
  </g>
  <text class="cls-14" transform="translate(131.87 238.88)"><tspan class="cls-1" x="0" y="0">Y</tspan><tspan class="cls-3" x="14.52" y="0">ou </tspan><tspan class="cls-5" x="55.3" y="0">K</tspan><tspan class="cls-3" x="72.71" y="0">n</tspan><tspan class="cls-2" x="90.22" y="0">o</tspan><tspan class="cls-3" x="107.3" y="0">w th</tspan><tspan class="cls-6" x="164.49" y="0">a</tspan><tspan class="cls-4" x="179.44" y="0">t</tspan><tspan class="cls-8" x="189.49" y="0"> </tspan><tspan class="cls-12" x="194.39" y="0">W</tspan><tspan class="cls-10" x="220.49" y="0">e </tspan><tspan class="cls-11" x="242.29" y="0">K</tspan><tspan class="cls-10" x="259.7" y="0">n</tspan><tspan class="cls-13" x="277.21" y="0">o</tspan><tspan class="cls-10" x="294.29" y="0">w</tspan></text>
</svg>